<?xml version="1.0" encoding="UTF-8"?>
<svg id="Layer_1" xmlns="http://www.w3.org/2000/svg" version="1.1" viewBox="22 170 226 38">
  <defs>
    <style>
      .st0 {
        fill: #ed2a91;
      }
    </style>
  </defs>
  <g>
    <path class="st0" d="M77.72,186.37h-8.26v3.83h7.71v6.44h-7.71v8.34h-7.76v-25.07h16.02v6.46Z"/>
    <path class="st0" d="M101.78,195.05c0,1.59-.24,3.02-.73,4.3-.49,1.28-1.2,2.37-2.13,3.27-.93.9-2.09,1.59-3.47,2.07-1.38.48-2.95.72-4.73.72s-3.2-.23-4.51-.69c-1.31-.46-2.41-1.12-3.31-1.99-.89-.87-1.57-1.93-2.04-3.18-.46-1.25-.7-2.66-.7-4.23v-15.42h7.76v15.21c0,.65.08,1.2.23,1.67.15.46.37.84.64,1.14s.61.51.99.64c.38.14.81.2,1.28.2s.9-.07,1.29-.2c.39-.13.72-.34,1-.62s.49-.63.64-1.05.23-.92.23-1.5v-15.49h7.55v15.13Z"/>
    <path class="st0" d="M129.42,204.98h-9.47l-6.28-11.24c-.4-.69-.75-1.37-1.06-2.04-.31-.66-.57-1.33-.79-2,.06.67.11,1.34.14,2.02.04.68.05,1.35.05,2.02v11.24h-7.06v-25.07h9.47l6.28,11.24c.4.68.75,1.36,1.06,2.03s.57,1.34.79,2.01c-.06-.67-.11-1.35-.14-2.04-.04-.69-.05-1.36-.05-2v-11.24h7.06v25.07Z"/>
    <path class="st0" d="M132.88,179.91c.61-.02,1.17-.05,1.68-.07.51-.02,1.01-.04,1.49-.05.48-.01.97-.02,1.46-.03s1.02,0,1.59,0c2.69,0,5.09.28,7.19.84,2.1.56,3.86,1.36,5.29,2.42,1.43,1.05,2.52,2.34,3.26,3.86.75,1.52,1.12,3.25,1.12,5.18,0,2.06-.39,3.9-1.17,5.51-.78,1.62-1.9,2.99-3.35,4.11-1.45,1.12-3.22,1.98-5.3,2.57-2.08.59-4.43.88-7.04.88-.56,0-1.09,0-1.59,0s-.98-.02-1.46-.03c-.48-.01-.98-.03-1.49-.04-.51-.02-1.07-.04-1.68-.06v-25.07ZM140.64,198.47h.28c1.07,0,2.05-.14,2.93-.41s1.62-.68,2.24-1.21c.61-.53,1.09-1.18,1.42-1.95.34-.77.5-1.65.5-2.64,0-.93-.15-1.76-.46-2.49-.31-.73-.76-1.34-1.36-1.84-.6-.5-1.34-.88-2.23-1.14-.88-.26-1.9-.39-3.04-.39h-.28v12.07Z"/>
    <path class="st0" d="M158.7,179.91c1.11-.06,2.2-.11,3.27-.14s2.14-.05,3.2-.05c2.2,0,4.15.2,5.84.61s3.12.99,4.28,1.75c1.16.76,2.04,1.7,2.64,2.8.6,1.1.9,2.34.9,3.73,0,.69-.08,1.35-.23,1.97-.15.62-.38,1.2-.68,1.74s-.67,1.05-1.1,1.52c-.44.47-.93.9-1.5,1.29.73,1.43,1.45,2.98,2.16,4.63s1.4,3.4,2.07,5.23h-8.49c-.41-1.2-.87-2.42-1.38-3.66-.5-1.24-1.06-2.48-1.66-3.71-.26.04-.52.06-.78.08s-.52.04-.79.06v7.23h-7.76v-25.07ZM166.46,191.84h.28c.67,0,1.27-.07,1.78-.2.51-.13.94-.33,1.29-.57.35-.25.61-.55.79-.91.18-.36.27-.77.27-1.23s-.09-.82-.27-1.17c-.18-.35-.44-.64-.79-.89-.35-.25-.78-.43-1.29-.56-.51-.13-1.11-.19-1.78-.19h-.28v5.73Z"/>
    <path class="st0" d="M198.38,179.91c1.54,4.13,2.92,8.31,4.13,12.53,1.21,4.23,2.17,8.41,2.88,12.53h-7.99c-.09-.64-.19-1.27-.29-1.91-.1-.64-.21-1.28-.33-1.91h-6.75c-.12.66-.23,1.3-.33,1.93-.1.63-.2,1.26-.29,1.9h-7.76c.71-4.13,1.67-8.31,2.88-12.53,1.22-4.23,2.59-8.41,4.13-12.53h9.72ZM195.49,195.12c-.29-1.23-.62-2.47-.97-3.7-.35-1.23-.72-2.46-1.1-3.67-.4,1.21-.78,2.43-1.13,3.67-.35,1.23-.68,2.47-.97,3.7h4.17Z"/>
    <path class="st0" d="M211.83,197.22c-.87-1.4-1.67-2.79-2.39-4.18-.72-1.39-1.39-2.79-2-4.22-.61-1.42-1.17-2.87-1.68-4.34-.51-1.47-.96-2.99-1.38-4.57h7.99c.25.94.5,1.82.75,2.65s.51,1.62.79,2.38c.27.76.56,1.52.88,2.26s.66,1.5,1.04,2.28c.36-.78.7-1.53,1.01-2.28s.61-1.49.88-2.26c.28-.76.54-1.56.79-2.38s.5-1.71.75-2.65h7.76c-.41,1.58-.87,3.1-1.38,4.57-.51,1.47-1.06,2.92-1.67,4.34-.61,1.42-1.27,2.83-2,4.22-.73,1.39-1.53,2.78-2.4,4.18v7.76h-7.76v-7.76Z"/>
    <path class="st0" d="M230.26,197.29c.96.61,1.96,1.08,2.99,1.39,1.03.32,2.02.48,2.97.48.4,0,.74-.03,1.03-.08.29-.05.53-.13.71-.23.19-.1.32-.23.41-.38.08-.15.12-.33.12-.53,0-.33-.15-.62-.44-.88-.29-.26-.68-.51-1.16-.75-.48-.24-1.02-.49-1.64-.74-.62-.25-1.24-.54-1.88-.86-.63-.32-1.26-.7-1.88-1.12s-1.16-.92-1.64-1.5c-.48-.58-.86-1.25-1.16-2.02-.29-.77-.44-1.66-.44-2.67,0-1.21.22-2.3.66-3.28.44-.98,1.07-1.81,1.9-2.5s1.82-1.22,2.99-1.59c1.17-.37,2.49-.56,3.96-.56s2.7.15,3.84.44,2.2.72,3.2,1.29l-1.66,6c-.83-.44-1.68-.79-2.55-1.07-.87-.28-1.75-.41-2.64-.41-.3,0-.58.02-.82.07s-.44.12-.61.21c-.16.09-.29.21-.38.35-.09.14-.13.31-.13.49,0,.31.15.58.44.82.29.24.68.48,1.15.71.48.23,1.02.47,1.63.71.61.25,1.24.53,1.88.85.64.32,1.26.69,1.88,1.11.61.42,1.15.93,1.63,1.52.48.59.86,1.27,1.15,2.05.29.78.44,1.68.44,2.72,0,1.22-.24,2.33-.72,3.33-.48.99-1.16,1.84-2.02,2.55s-1.9,1.25-3.1,1.64c-1.21.39-2.53.58-3.98.58-1.6,0-3.02-.18-4.25-.53-1.24-.35-2.38-.88-3.44-1.57l1.55-6.03Z"/>
  </g>
  <g>
    <path class="st0" d="M52.95,187.47c1.03,0,1.89-.86,1.89-1.89v-7.86c0-1.03-.86-1.89-1.89-1.89s-1.89.86-1.89,1.89v7.86c0,1.03.86,1.89,1.89,1.89Z"/>
    <path class="st0" d="M42.55,188.85c.35.63.98.98,1.66.98.35,0,.63-.06.98-.23.92-.52,1.21-1.66.69-2.58l-3.9-6.83c-.52-.92-1.66-1.21-2.58-.69-.92.52-1.21,1.66-.69,2.58l3.85,6.77Z"/>
    <path class="st0" d="M30.04,192.06l6.83,3.9c.29.17.63.23.98.23.63,0,1.32-.35,1.66-.98.52-.92.23-2.07-.69-2.58l-6.89-3.9c-.92-.52-2.07-.23-2.58.69-.57.92-.23,2.12.69,2.64h0Z"/>
    <path class="st0" d="M37.33,203.09c0-1.03-.86-1.89-1.89-1.89h-7.86c-1.03,0-1.89.86-1.89,1.89s.86,1.89,1.89,1.89h7.86c1.03,0,1.89-.86,1.89-1.89Z"/>
    <path class="st0" d="M54.84,204.98v-13.79c-.62-.1-1.25-.16-1.9-.16-6.66,0-12.06,5.4-12.06,12.06,0,.65.07,1.28.16,1.89h13.79Z"/>
  </g>
</svg>
